<?xml version="1.0" encoding="UTF-8" standalone="no"?><svg xmlns:rdf="http://www.w3.org/1999/02/22-rdf-syntax-ns#" style="enable-background:new;" xmlns="http://www.w3.org/2000/svg" height="100%" width="100%" version="1.1" xmlns:cc="http://creativecommons.org/ns#" xmlns:dc="http://purl.org/dc/elements/1.1/" viewBox="0 0 969 468"><metadata><rdf:RDF><cc:Work rdf:about=""><dc:format>image/svg+xml</dc:format><dc:type rdf:resource="http://purl.org/dc/dcmitype/StillImage"/><dc:title/></cc:Work></rdf:RDF></metadata><path fill="#ff7500" d="m0,241.99,969,0.005v119.4c0,56.27-54.25,106.6-105,106.6h-864z"/><path fill="#FFF" d="m969,226,0,16.002-969-0.005,0-15.993z"/><path fill="#003468" d="m0,0,969,0,0,226-969,0.004z"/><path fill="#FFF" d="m56,58v113c0,2,0.67648,8,10,8s10-6,10-8v-113c0-2-1-7-10-7s-10,5-10,7z"/><path fill="#FFF" d="m817,60v111c0,2,1,8,11,8s11-6,11-8v-69l29,69s3,8,12,8c11,0,12-8,12-8v-113c0-2-1-7-11-7s-11,5-11,7v66c-32-72-27-73-43-73-9,0-10,9-10,9z"/><path fill="#FFF" d="m116,51c-8.9964,0-10,7-10,7v113c0,2,0.67647,8,10,8s10-6,10-8v-68c17,35,13.591,42,27,42s10-7,27-42v68c0,2,0.67648,8,10,8s10-6,10-8v-113s-1.0036-7-10-7c-9.9964,0-13,7-13,7l-24,53-24-53s-3.0036-7-13-7z"/><path fill="#FFF" d="m239.53,51c-8.9964,0-10,7-10,7s0.01,111,0,113,0.67647,8,10,8,9.9449-6,10-8,0-48,0-68c17,35,13.591,42,27,42s10-7,27-42c0,20,0.007,66,0,68s0.67648,8,10,8,10-6,10-8v-113s-1.0036-7-10-7c-9.9964,0-13,7-13,7l-24,53-24-53s-3.0036-7-13-7z"/><rect ry="36.239" height="128.85" width="74.953" y="51" x="350.02" fill="#FFF"/><rect ry="16.263" height="85.897" width="32.527" y="71.763" x="370.88" fill="#003468"/><path fill="#FFF" d="m460,51c-5,0-10,5-10,9.6529v107.35c0,5,5,10,10,10h30c28,0,48.055-40,21.919-65,24.08-20,8.08-62-21.92-62h-30z"/><path fill="#003468" d="m472,73,0,29,16,0c17,0,17-29-1-29z"/><path fill="#003468" d="m472,124,0,33,13,0c22,0,22-33,0-33z"/><path fill="#FFF" d="m595,58v113s0.67648,8,10,8h49s9-1,9-11-9-11-9-11h-39v-99c0-2-1-7-10-7s-10,5-10,7z"/><path fill="#FFF" d="m722.28,58,0,113s0.67648,8,10,8h57.718c2,0,7-1,7-11s-5-11-7-11h-47v-33h32c2,0,8-2,8-11s-6-10-8-10h-32v-30h46c2,0,8-1,8-11s-6-11-8-11h-56.718c-8.528,0-10,7-10,7z"/><path fill="#FFF" d="m546,58v113c0,2,0.67648,8,10,8s10-6,10-8v-113c0-2-1-7-10-7s-10,5-10,7z"/><path fill="#FFF" d="m674,58v113c0,2,0.67648,8,10,8s10-6,10-8v-113c0-2-1-7-10-7s-10,5-10,7z"/><g transform="translate(-118.79384,241.20368)"><rect ry="36.239" height="128.85" width="74.953" y="51" x="350.02" fill="#003468"/><rect ry="16.263" height="85.897" width="32.527" y="71.763" x="370.88" fill="#ff7500"/></g><path fill="#003468" d="m114,332c16,0,16.108-39.796-26-39.796-22.207,0-37,13.321-37,32.796,0,32.796,54,40,54,61,0,0,0,14-17,14s-17-14-17-14,0-12-10-12-10,12-10,12,0,34,37,34,37-27,37-34c0-43-53-41-53-61,0,0,0-12,16-11.875,24-0.12,8,18.88,26,18.88z"/><path fill="#003468" d="m177.81,292.2,2.4747,0c32.72,0,48.72,42.8,24.72,42.8-7,0-9-7-9-7s-2-15-16-15-17,15-17,15v57c0,20,33,20,33,0,0,0,1-7,11-7,19,0,8,43-26.81,43h-2.4747c-20.08,0-35.72-15.92-35.72-36v-57c0-20.077,15.73-35.796,35.807-35.796z"/><path fill="#003468" d="m338,292c9,0,10,5,10,7v86c0,4,2,16,17,16s17-12,17-16v-87c0-2,1-6,10-6s10,5,10,7,0.47655,85.818,0.47655,85.818c0.11148,20.076-16.163,36.239-36.239,36.239h-2.4747c-20.077,0-36.351-16.163-36.239-36.239,0,0,0.47656-83.818,0.47656-85.818s1-7,10-7z"/><path fill="#003468" d="m442,314v99c0,2,1,7,10,7s10-5,10-7v-99h19c2,0,7-1,7-10s-5-10-7-10h-59c-2,0-7,1-7,10s5,10,7,10h20z"/><path fill="#003468" d="m540,329s-1,7-10,7-10-7-10-7-5-37,31-37,36.237,36,31,44c-14,23-39,63-39,63h36c2,0,7,1,7,10s-5,10-7,10h-54s-7-1-7-10c0-15,30.538-55.888,45-79,3-6,0-17-12-17s-11,16-11,16z"/><path fill="#003468" d="m630.25,294.88c5.5688-6.1463,20.248-0.97132,18.75,9.125l-32,70h17v-15s1-6,10-6,10,6,10,6v15h9c2,0,7,1,7,10s-5,10-7,10h-9v19c0,2-1,7-10,7s-10-5-10-7v-20h-34c-17.125-7.5,0.9375-24.188,30.25-98.125z"/></svg>