<svg xmlns="http://www.w3.org/2000/svg" width="326px" height="357px" xmlns:xlink="http://www.w3.org/1999/xlink" version="1.1"><defs/><g transform="translate(0.5,0.5)"><rect x="2" y="2" width="170" height="110" fill="#d0d0d0" stroke="#d0d0d0" transform="translate(2,3)" opacity="1"/><rect x="2" y="2" width="170" height="110" fill="#ffffff" stroke="#000000" pointer-events="none"/><g font-size="12px"><text x="14" y="61" fill="#000000" font-family="Helvetica">CSS</text></g><rect x="52" y="12" width="100" height="40" fill="#ffffff" stroke="#000000" pointer-events="none"/><g text-anchor="middle" font-size="12px"><text x="102" y="36" fill="#000000" font-family="Helvetica">Css Core</text></g><rect x="52" y="62" width="100" height="40" fill="#ffffff" stroke="#000000" pointer-events="none"/><g text-anchor="middle" font-size="12px"><text x="102" y="86" fill="#000000" font-family="Helvetica">Css Main</text></g><rect x="2" y="132" width="170" height="160" fill="#d0d0d0" stroke="#d0d0d0" transform="translate(2,3)" opacity="1"/><rect x="2" y="132" width="170" height="160" fill="#ffffff" stroke="#000000" pointer-events="none"/><g font-size="12px"><text x="14" y="216" fill="#000000" font-family="Helvetica">     JS</text></g><rect x="57" y="142" width="95" height="40" fill="#ccff99" stroke="#000000" pointer-events="none"/><g text-anchor="middle" font-size="12px"><text x="105" y="166" fill="#000000" font-family="Helvetica">JS Libs</text></g><rect x="57" y="192" width="95" height="40" fill="#ccff99" stroke="#000000" pointer-events="none"/><g text-anchor="middle" font-size="12px"><text x="105" y="216" fill="#000000" font-family="Helvetica">JS Framework</text></g><rect x="2" y="312" width="170" height="40" fill="#d0d0d0" stroke="#d0d0d0" transform="translate(2,3)" opacity="1"/><rect x="2" y="312" width="170" height="40" fill="#ffffff" stroke="#000000" pointer-events="none"/><g text-anchor="middle" font-size="12px"><text x="87" y="336" fill="#000000" font-family="Helvetica">Html Templates</text></g><rect x="222" y="242" width="100" height="40" fill="#d0d0d0" stroke="#d0d0d0" transform="translate(2,3)" opacity="1"/><rect x="222" y="242" width="100" height="40" fill="#ffffff" stroke="#000000" pointer-events="none"/><g text-anchor="middle" font-size="12px"><text x="272" y="266" fill="#000000" font-family="Helvetica">JS Modules</text></g><rect x="57" y="242" width="95" height="40" fill="#ccff99" stroke="#000000" pointer-events="none"/><g text-anchor="middle" font-size="12px"><text x="105" y="266" fill="#000000" font-family="Helvetica">JS Modules</text></g><path d="M 152 262 L 222 262" fill="none" stroke="#000000" stroke-miterlimit="10" stroke-dasharray="3 3" pointer-events="none"/></g></svg>